<svg xmlns="http://www.w3.org/2000/svg" viewBox="0 0 100 120" width="64" height="64">
  <rect width="100" height="120" rx="24" fill="#002b36"/>
  <!-- Staff lines -->
  <line x1="10" y1="40" x2="90" y2="40" stroke="#586e75" stroke-width="0.5" opacity="0.6"/>
  <line x1="10" y1="60" x2="90" y2="60" stroke="#586e75" stroke-width="0.5" opacity="0.6"/>
  <line x1="10" y1="80" x2="90" y2="80" stroke="#586e75" stroke-width="0.5" opacity="0.6"/>
  <line x1="10" y1="100" x2="90" y2="100" stroke="#586e75" stroke-width="0.5" opacity="0.6"/>
  <!-- Ghost S -->
  <path d="M 30 80 A 20 20 0 0 0 50 100 A 20 20 0 0 0 70 80 A 20 20 0 0 0 50 60 A 16 16 0 0 1 34 44 A 16 16 0 0 1 50 28 A 16 16 0 0 1 66 44" fill="none" stroke="#2aa198" stroke-width="1" stroke-linecap="round" stroke-linejoin="round" opacity="0.6" transform="translate(-3, 3)"/>
  <ellipse cx="27" cy="83" rx="9" ry="6" fill="#2aa198" opacity="0.6" transform="rotate(-15, 27, 83)"/>
  <!-- Main S -->
  <path d="M 30 80 A 20 20 0 0 0 50 100 A 20 20 0 0 0 70 80 A 20 20 0 0 0 50 60 A 16 16 0 0 1 34 44 A 16 16 0 0 1 50 28 A 16 16 0 0 1 66 44" fill="none" stroke="#fdf6e3" stroke-width="2" stroke-linecap="round" stroke-linejoin="round"/>
  <ellipse cx="30" cy="80" rx="9" ry="6" fill="#fdf6e3" transform="rotate(-15, 30, 80)"/>
</svg>
